<svg width="128" height="128" viewBox="0 0 128 128" fill="none" xmlns="http://www.w3.org/2000/svg">
<circle cx="64" cy="64" r="64" fill="#F7931A"/>
<path d="M92.2188 54.8818C93.4928 46.3658 87.0088 41.7878 78.1428 38.7338L81.0188 27.1978L73.9968 25.4478L71.1968 36.6798C69.3508 36.2198 67.4548 35.7858 65.5708 35.3558L68.3908 24.0498L61.3728 22.2998L58.4948 33.8318C56.9668 33.4838 55.4668 33.1398 54.0108 32.7778L54.0188 32.7418L44.3348 30.3238L42.4668 37.8238C42.4668 37.8238 47.6768 39.0178 47.5668 39.0918C50.4108 39.8018 50.9248 41.6838 50.8388 43.1758L47.5628 56.3178C47.7588 56.3678 48.0128 56.4398 48.2928 56.5518C48.0588 56.4938 47.8088 56.4298 47.5508 56.3678L42.9588 74.7778C42.6108 75.6418 41.7288 76.9378 39.7408 76.4458C39.8108 76.5478 34.6368 75.1718 34.6368 75.1718L31.1508 83.2098L40.2888 85.4878C41.9888 85.9138 43.6548 86.3598 45.2948 86.7798L42.3888 98.4478L49.4028 100.198L52.2808 88.6538C54.1968 89.1738 56.0568 89.6538 57.8768 90.1058L55.0088 101.596L62.0308 103.346L64.9368 91.6998C76.9108 93.9658 85.9148 93.0518 89.7048 82.2218C92.7588 73.5018 89.5528 68.4718 83.2528 65.1918C87.8408 64.1338 91.2968 61.1158 92.2188 54.8818ZM76.1748 77.3798C74.0048 86.0998 59.3228 81.3858 54.5628 80.2038L58.4188 64.7458C63.1788 65.9338 78.4428 68.2858 76.1748 77.3798ZM78.3468 54.7558C76.3668 62.6878 64.1468 58.6578 60.1828 57.6698L63.6788 43.6498C67.6428 44.6378 80.4088 46.4818 78.3468 54.7558Z" fill="white"/>
</svg>
