<svg width="26" height="26" viewBox="0 0 26 26" fill="none" xmlns="http://www.w3.org/2000/svg">
<path opacity="0.2" d="M13 26C20.1797 26 26 20.1797 26 13C26 5.8203 20.1797 0 13 0C5.8203 0 0 5.8203 0 13C0 20.1797 5.8203 26 13 26Z" fill="#3391F6"/>
<mask id="mask0" mask-type="alpha" maskUnits="userSpaceOnUse" x="0" y="0" width="26" height="26">
<path d="M13 26C20.1797 26 26 20.1797 26 13C26 5.8203 20.1797 0 13 0C5.8203 0 0 5.8203 0 13C0 20.1797 5.8203 26 13 26Z" fill="white"/>
</mask>
<g mask="url(#mask0)">
<path fill-rule="evenodd" clip-rule="evenodd" d="M14.9215 20.1576C13.8782 20.1576 13.1178 19.9197 12.6403 19.4285C12.1628 18.9373 11.9318 18.4234 11.9318 17.8563C11.9318 17.6563 11.9707 17.479 12.0616 17.3398C12.1394 17.2005 12.2536 17.0891 12.3963 17.0132C12.5391 16.9372 12.7182 16.8866 12.9258 16.8866C13.1334 16.8866 13.3125 16.9246 13.4552 17.0132C13.5979 17.0891 13.7121 17.2005 13.79 17.3398C13.8679 17.479 13.9198 17.6537 13.9198 17.8563C13.9198 18.1069 13.8549 18.3095 13.7381 18.4588C13.6213 18.6107 13.4682 18.7221 13.2995 18.7728C13.4422 18.9601 13.6732 19.0994 13.982 19.188C14.2909 19.2766 14.5997 19.3146 14.9111 19.3146C15.3497 19.3146 15.7364 19.2006 16.0842 18.9753C16.432 18.75 16.6889 18.4107 16.8576 17.9702C17.0263 17.5297 17.1015 17.0284 17.1015 16.4613C17.1015 15.846 17.0107 15.3296 16.8316 14.9017C16.65 14.4612 16.393 14.1346 16.0453 13.9346C15.6975 13.7219 15.3238 13.6206 14.9111 13.6206C14.6412 13.6206 14.3194 13.7346 13.9198 13.9472L13.1931 14.2865V13.9346L16.4787 9.66094H11.9318V14.0991C11.9318 14.4637 12.0097 14.765 12.1758 15.0055C12.3444 15.2435 12.6014 15.3574 12.9362 15.3574C13.2061 15.3574 13.4526 15.2688 13.6966 15.0941C13.9405 14.9169 14.1481 14.7042 14.3272 14.4662C14.3532 14.4156 14.3791 14.3776 14.4051 14.365C14.444 14.3396 14.47 14.327 14.5089 14.327C14.5738 14.327 14.6386 14.3523 14.7269 14.4156C14.8047 14.5042 14.8437 14.6029 14.8437 14.7169C14.8437 14.7675 14.8177 14.8435 14.8047 14.9422C14.6231 15.3574 14.3661 15.6714 14.0314 15.884C13.6966 16.0967 13.3358 16.2106 12.9362 16.2106C11.9448 16.2106 11.2726 16.0233 10.8859 15.646C10.5122 15.2688 10.3202 14.7523 10.3202 14.1118V9.66094H8V8.83052H10.3331V6.94435L9.8037 6.42787V6H11.3505L11.9292 6.28862V8.81786L17.9476 8.8052L18.5393 9.38244L14.8566 12.9927C15.0746 12.9041 15.3082 12.8535 15.5522 12.8282C15.9518 12.8282 16.4034 12.9548 16.8913 13.2054C17.3948 13.4434 17.7815 13.7827 18.0514 14.2105C18.3213 14.6384 18.503 15.0409 18.5808 15.4308C18.6587 15.8207 18.7106 16.16 18.7106 16.4739C18.7106 17.1651 18.5549 17.8056 18.259 18.3981C17.9632 18.988 17.5116 19.4412 16.8939 19.7298C16.2866 20.0184 15.63 20.1576 14.9215 20.1576Z" fill="#3391F6"/>
</g>
</svg>
